<svg width="85" height="49" viewBox="0 0 85 49" fill="none" xmlns="http://www.w3.org/2000/svg">
<g id="Group">
<path id="Vector" d="M0 40.7556V33.2889C0 27.0667 4.3642 21.1556 10.9105 19.9111C6.5463 18.6667 3.42901 14.6222 3.42901 10.2667C3.42901 4.66667 8.10494 0 13.716 0C19.3272 0 24.0031 4.66667 24.0031 10.2667C24.0031 14.6222 20.8858 18.6667 16.5216 19.9111C23.0679 21.1556 27.7438 27.0667 27.7438 33.2889V40.7556C19.3272 44.8 8.10494 44.8 0 40.7556ZM24.9383 38.8889V33.2889C24.9383 27.0667 19.9506 22.0889 13.716 22.0889C7.48148 22.0889 2.49383 27.0667 2.49383 33.2889V38.8889C8.72839 42 18.7037 42 24.9383 38.8889ZM28.3673 45.7333V38.5778C28.3673 32.0444 33.0432 26.4444 39.2778 25.2C35.2253 23.9556 32.108 19.9111 32.108 15.2444C32.108 9.64444 36.784 5.28889 42.3951 5.28889C48.0062 5.28889 52.3704 9.64444 52.3704 15.2444C52.3704 19.9111 49.5648 23.9556 45.2006 25.2C51.4352 26.4444 56.1111 32.0444 56.1111 38.5778V45.7333C47.6944 50.0889 36.784 50.0889 28.3673 45.7333ZM53.6173 44.1778V38.5778C53.6173 32.3556 48.6296 27.3778 42.3951 27.3778C36.1605 27.3778 30.8611 32.3556 30.8611 38.5778V44.1778C37.4074 46.9778 47.3827 46.9778 53.6173 44.1778ZM42.3951 7.77778C38.0309 7.77778 34.6019 11.2 34.6019 15.2444C34.6019 19.6 38.0309 23.0222 42.3951 23.0222C46.4475 23.0222 49.8765 19.6 49.8765 15.2444C49.8765 11.2 46.4475 7.77778 42.3951 7.77778ZM57.0463 40.7556V33.2889C57.0463 27.0667 61.7222 21.1556 67.9568 19.9111C63.5926 18.6667 60.787 14.6222 60.787 10.2667C60.787 4.66667 65.1512 0 70.7623 0C76.3735 0 81.0494 4.66667 81.0494 10.2667C81.0494 14.6222 77.9321 18.6667 73.8796 19.9111C80.1142 21.1556 84.7901 27.0667 84.7901 33.2889V40.7556C76.3735 44.8 65.463 44.8 57.0463 40.7556ZM81.9846 38.8889V33.2889C81.9846 27.0667 76.9969 22.0889 70.7623 22.0889C64.5278 22.0889 59.5401 27.0667 59.5401 33.2889V38.8889C65.7747 42 75.75 42 81.9846 38.8889ZM70.7623 2.48889C66.7099 2.48889 63.2809 5.91111 63.2809 10.2667C63.2809 14.3111 66.7099 17.7333 70.7623 17.7333C75.1265 17.7333 78.5556 14.3111 78.5556 10.2667C78.5556 5.91111 75.1265 2.48889 70.7623 2.48889ZM13.716 2.48889C9.66358 2.48889 6.23457 5.91111 6.23457 10.2667C6.23457 14.3111 9.66358 17.7333 13.716 17.7333C18.0802 17.7333 21.5093 14.3111 21.5093 10.2667C21.5093 5.91111 18.0802 2.48889 13.716 2.48889Z" fill="black"/>
</g>
</svg>
