<svg width="79" height="75" viewBox="0 0 79 75" fill="none" xmlns="http://www.w3.org/2000/svg">
<g id="Group">
<path id="Vector" d="M9.41295 40.2985H28.6871C33.8418 40.2985 38.1 36.0448 38.1 30.8955C38.1 29.6642 37.0915 28.6567 35.8588 28.6567C34.6262 28.6567 33.6177 29.6642 33.6177 30.8955C33.6177 33.5821 31.3765 35.8209 28.6871 35.8209H9.41295C6.72353 35.8209 4.48236 33.5821 4.48236 30.8955V9.40298C4.48236 6.71642 6.72353 4.47761 9.41295 4.47761H28.6871C31.3765 4.47761 33.6177 6.71642 33.6177 9.40298V24.291C33.6177 25.5224 34.6262 26.5299 35.8588 26.5299C37.0915 26.5299 38.1 25.5224 38.1 24.291V9.40298C38.1 4.25373 33.8418 0 28.6871 0H9.41295C4.25824 0 0 4.25373 0 9.40298V30.8955C0 36.0448 4.25824 40.2985 9.41295 40.2985Z" fill="black"/>
<path id="Vector_2" d="M9.41295 75H28.6871C33.8418 75 38.1 70.7463 38.1 65.597V53.0597C38.1 47.9105 33.8418 43.6567 28.6871 43.6567H9.41295C4.25824 43.6567 0 47.9105 0 53.0597V65.597C0 70.7463 4.25824 75 9.41295 75ZM4.48236 53.0597C4.48236 50.3732 6.72353 48.1344 9.41295 48.1344H28.6871C31.3765 48.1344 33.6177 50.3732 33.6177 53.0597V65.597C33.6177 68.2836 31.3765 70.5224 28.6871 70.5224H9.41295C6.72353 70.5224 4.48236 68.2836 4.48236 65.597V53.0597Z" fill="black"/>
<path id="Vector_3" d="M50.8746 74.9999H69.0281C74.1829 74.9999 78.4411 70.7462 78.4411 65.5969V45.2238C78.4411 40.0745 74.1829 35.8208 69.0281 35.8208H50.8746C45.7199 35.8208 41.4617 40.0745 41.4617 45.2238C41.4617 46.4551 42.4702 47.4626 43.7028 47.4626C44.9355 47.4626 45.944 46.4551 45.944 45.2238C45.944 42.5372 48.1852 40.2984 50.8746 40.2984H69.0281C71.7176 40.2984 73.9587 42.5372 73.9587 45.2238V65.5969C73.9587 68.2835 71.7176 70.5223 69.0281 70.5223H50.8746C48.1852 70.5223 45.944 68.2835 45.944 65.5969V51.7163C45.944 50.485 44.9355 49.4775 43.7028 49.4775C42.4702 49.4775 41.4617 50.485 41.4617 51.7163V65.5969C41.4617 70.7462 45.7199 74.9999 50.8746 74.9999Z" fill="black"/>
<path id="Vector_4" d="M50.8746 32.4627H69.0281C74.1829 32.4627 78.4411 28.209 78.4411 23.0597V9.40298C78.4411 4.25373 74.1829 0 69.0281 0H50.8746C45.7199 0 41.4617 4.25373 41.4617 9.40298V23.0597C41.4617 28.209 45.7199 32.4627 50.8746 32.4627ZM45.944 9.40298C45.944 6.71642 48.1852 4.47761 50.8746 4.47761H69.0281C71.7176 4.47761 73.9587 6.71642 73.9587 9.40298V23.0597C73.9587 25.7463 71.7176 27.9851 69.0281 27.9851H50.8746C48.1852 27.9851 45.944 25.7463 45.944 23.0597V9.40298Z" fill="black"/>
</g>
</svg>
